<svg width="100" height="236" viewBox="0 0 259 236" fill="none" xmlns="http://www.w3.org/2000/svg">
    <g clip-path="url(#clip0_11_623)">
        <path d="M224.46 31.17H213.89V20.61C213.89 19.68 213.13 18.92 212.2 18.92H206.08C205.15 18.92 204.39 19.68 204.39 20.61V31.18H193.82C192.89 31.18 192.13 31.94 192.13 32.87V38.99C192.13 39.92 192.89 40.68 193.82 40.68H204.39V51.25C204.39 52.18 205.15 52.94 206.08 52.94H212.2C213.13 52.94 213.89 52.18 213.89 51.25V40.67H224.46C225.39 40.67 226.15 39.91 226.15 38.98V32.86C226.14 31.93 225.39 31.17 224.46 31.17Z" fill="#FF939B"/>
        <path d="M17.76 198.61H11.95V192.8C11.95 192.29 11.53 191.87 11.02 191.87H7.66C7.15 191.87 6.73 192.29 6.73 192.8V198.61H0.93C0.42 198.61 0 199.03 0 199.54V202.91C0 203.42 0.42 203.84 0.93 203.84H6.74V209.65C6.74 210.16 7.16 210.58 7.67 210.58H11.04C11.55 210.58 11.97 210.16 11.97 209.65V203.84H17.78C18.29 203.84 18.71 203.42 18.71 202.91V199.54C18.69 199.03 18.28 198.61 17.76 198.61Z" fill="#FF939B"/>
        <path d="M40.8 164.2H32.98V156.38C32.98 155.69 32.42 155.13 31.73 155.13H27.2C26.51 155.13 25.95 155.69 25.95 156.38V164.2H18.13C17.44 164.2 16.88 164.76 16.88 165.45V169.98C16.88 170.67 17.44 171.23 18.13 171.23H25.95V179.05C25.95 179.74 26.51 180.3 27.2 180.3H31.73C32.42 180.3 32.98 179.74 32.98 179.05V171.23H40.8C41.49 171.23 42.05 170.67 42.05 169.98V165.45C42.04 164.76 41.49 164.2 40.8 164.2Z" fill="#FF939B"/>
        <path d="M257.81 6.37H252.32V0.88C252.32 0.4 251.93 0 251.44 0H248.26C247.78 0 247.38 0.39 247.38 0.88V6.37H241.89C241.41 6.37 241.01 6.76 241.01 7.25V10.43C241.01 10.91 241.4 11.31 241.89 11.31H247.38V16.8C247.38 17.28 247.77 17.68 248.26 17.68H251.44C251.92 17.68 252.32 17.29 252.32 16.8V11.31H257.81C258.29 11.31 258.69 10.92 258.69 10.43V7.25C258.69 6.76 258.3 6.37 257.81 6.37Z" fill="#FF939B"/>
        <path d="M179.28 20.64H171.46V12.82C171.46 12.13 170.9 11.57 170.21 11.57H165.68C164.99 11.57 164.43 12.13 164.43 12.82V20.64H156.61C155.92 20.64 155.36 21.2 155.36 21.89V26.42C155.36 27.11 155.92 27.67 156.61 27.67H164.43V35.49C164.43 36.18 164.99 36.74 165.68 36.74H170.21C170.9 36.74 171.46 36.18 171.46 35.49V27.67H179.28C179.97 27.67 180.53 27.11 180.53 26.42V21.89C180.53 21.2 179.97 20.64 179.28 20.64Z" fill="#FF939B"/>
        <path d="M238.15 133.08C238.08 133.03 238 133.02 237.92 132.99C239.02 129.8 239.32 126.18 238.75 122.57C238.19 119.04 236.86 115.9 234.95 113.37C239.97 110.76 243.72 105.61 245.07 99.4C247.36 88.86 243.74 77.97 235.39 70.28C227.27 62.8 216.26 59.68 206.07 61.78C207.96 54.96 205.93 46.96 200.74 41.14C196.03 35.86 188.93 32.32 180.75 31.19C175.8 30.5 168.56 30.46 162.18 34.14C156.32 37.52 152.65 43.5 152.67 49.53C152.67 49.55 152.66 49.57 152.66 49.59V118.45V197.34C152.6 197.53 152.6 197.73 152.66 197.92V214.74C152.66 214.74 152.66 214.74 152.66 214.75C152.36 219.77 156.1 227.33 160.38 230.35C165.28 233.8 171.77 235.58 178.87 235.58C182.82 235.58 186.96 235.03 191.12 233.9C199.84 231.54 208.44 224.32 214.7 214.08C218.43 207.98 220.02 201.28 219.19 195.22C219.13 194.81 219.06 194.4 218.98 193.99C220.37 194.36 221.78 194.53 223.17 194.53C230.26 194.53 236.94 190.34 239.18 188.79C248.13 182.55 253.35 172.02 253.13 160.62C252.89 149.24 247.3 138.95 238.15 133.08Z" fill="#BBDDDE"/>
        <path d="M134.4 203.12V186.3C134.45 186.11 134.46 185.91 134.4 185.72V106.83V37.97C134.4 37.95 134.39 37.93 134.39 37.91C134.41 31.88 130.74 25.9 124.88 22.52C118.49 18.84 111.26 18.88 106.31 19.57C98.13 20.71 91.03 24.24 86.32 29.52C81.13 35.34 79.09 43.33 80.99 50.16C70.79 48.06 59.79 51.18 51.67 58.66C43.32 66.35 39.7 77.24 41.99 87.78C43.34 93.99 47.09 99.14 52.11 101.75C50.19 104.28 48.87 107.42 48.31 110.95C47.74 114.56 48.04 118.18 49.14 121.37C49.06 121.4 48.98 121.41 48.91 121.46C39.76 127.33 34.17 137.62 33.96 148.99C33.74 160.4 38.96 170.93 47.91 177.16C50.14 178.71 56.82 182.9 63.92 182.9C65.31 182.9 66.72 182.74 68.11 182.36C68.03 182.77 67.96 183.17 67.9 183.59C67.07 189.65 68.66 196.35 72.39 202.45C78.65 212.69 87.24 219.91 95.97 222.27C100.13 223.39 104.27 223.95 108.22 223.95C115.32 223.95 121.82 222.17 126.71 218.72C130.96 215.7 134.7 208.15 134.4 203.12Z" fill="#F3F6FA"/>
        <path d="M140.37 192.7C140.42 192.51 140.43 192.31 140.37 192.12V113.23V44.37C140.37 44.35 140.36 44.33 140.36 44.31C140.38 38.28 136.71 32.3 130.85 28.92C124.46 25.24 117.23 25.28 112.28 25.97C104.1 27.11 97 30.64 92.29 35.92C87.1 41.74 85.06 49.73 86.96 56.56C76.76 54.46 65.76 57.58 57.64 65.06C49.29 72.75 45.67 83.64 47.96 94.18C49.31 100.39 53.06 105.54 58.08 108.15C56.16 110.68 54.84 113.82 54.28 117.35C53.71 120.96 54.01 124.58 55.11 127.77C55.03 127.8 54.95 127.81 54.88 127.86C45.73 133.73 40.14 144.02 39.93 155.39C39.71 166.8 44.93 177.33 53.88 183.56C56.11 185.11 62.79 189.3 69.89 189.3C71.28 189.3 72.69 189.14 74.08 188.76C74 189.17 73.93 189.57 73.87 189.99C73.04 196.05 74.63 202.75 78.36 208.85C84.62 219.09 93.21 226.31 101.94 228.67C106.1 229.79 110.24 230.35 114.19 230.35C121.29 230.35 127.79 228.57 132.68 225.12C136.97 222.1 140.7 214.55 140.4 209.52C140.4 209.52 140.4 209.52 140.4 209.51V192.7H140.37ZM131.43 223.4C124.31 228.41 113.48 229.62 102.45 226.64C94.24 224.42 86.1 217.54 80.12 207.76C76.65 202.08 75.15 195.87 75.92 190.29C76.78 184.03 80.7 178.55 85.9 176.31C86.11 176.22 86.25 176.07 86.36 175.89C87.69 177.01 89.18 177.94 90.77 178.62C92.98 179.56 95.39 180.02 97.81 180.02C101.46 180.02 105.13 178.97 108.13 176.92C108.61 176.59 108.74 175.94 108.41 175.45C108.08 174.97 107.43 174.84 106.94 175.17C102.53 178.17 96.5 178.76 91.59 176.67C86.68 174.58 82.93 169.83 82.03 164.57C81.13 159.31 83.09 153.58 87.03 149.98C87.46 149.59 87.49 148.92 87.1 148.49C86.71 148.06 86.04 148.03 85.61 148.42C81.16 152.5 78.93 158.97 79.95 164.93C80.56 168.49 82.33 171.85 84.85 174.47C80.13 176.58 76.38 181.03 74.66 186.37C74.64 186.38 74.62 186.37 74.61 186.38C66.71 189.31 57.64 183.64 55.04 181.84C46.67 176.01 41.79 166.14 42 155.44C42.2 144.83 47.38 135.23 55.86 129.73C55.88 129.77 55.89 129.81 55.91 129.85C57.9 133.92 61.34 136.99 65.35 138.28C66.7 138.71 68.11 138.92 69.52 138.92C72.57 138.92 75.58 137.92 77.83 136.06C78.28 135.69 78.34 135.02 77.97 134.57C77.6 134.12 76.93 134.06 76.48 134.43C73.74 136.7 69.62 137.42 66 136.26C62.58 135.17 59.52 132.42 57.81 128.92C56.22 125.67 55.7 121.68 56.33 117.69C57.05 113.17 59.22 109.2 62.29 106.79C65.7 104.12 70.36 103.43 73.89 105.09C74.42 105.34 75.05 105.11 75.3 104.58C75.55 104.05 75.32 103.42 74.79 103.17C70.56 101.18 65.02 101.96 60.99 105.12C60.46 105.54 59.96 106 59.48 106.49C54.79 104.25 51.26 99.52 50.01 93.73C47.88 83.93 51.26 73.79 59.06 66.61C67.02 59.28 77.91 56.4 87.79 58.91C84.91 62.73 84.48 68.23 86.94 72.4C87.14 72.73 87.49 72.92 87.85 72.92C88.03 72.92 88.22 72.87 88.38 72.77C88.88 72.47 89.05 71.83 88.75 71.32C86.51 67.51 87.25 62.12 90.44 59.06C93.63 56 99.04 55.47 102.76 57.87C103.25 58.19 103.9 58.04 104.22 57.55C104.54 57.06 104.39 56.41 103.9 56.09C99.49 53.25 93.37 53.73 89.42 57.14C89.36 57.12 89.31 57.11 89.25 57.1C89.25 56.98 89.25 56.87 89.21 56.75C87.11 50.45 88.94 42.81 93.86 37.3C98.24 32.39 104.89 29.1 112.57 28.03C117.19 27.39 123.93 27.33 129.8 30.72C135.11 33.78 138.5 39.45 138.25 44.83C138.25 44.86 138.26 44.89 138.26 44.92V74.54C133.12 75.77 127.95 75.46 123.67 73.62C118.84 71.55 115.21 67.56 113.95 62.95C112.62 58.09 114.22 52.61 117.84 49.63C118.29 49.26 118.35 48.59 117.98 48.14C117.61 47.69 116.94 47.63 116.49 48C112.19 51.55 110.34 57.79 111.91 63.51C113.34 68.74 117.42 73.25 122.84 75.57C125.68 76.79 128.87 77.4 132.17 77.4C134.17 77.4 136.22 77.16 138.26 76.71V112.99C135.94 118.49 129.35 122.54 123.46 122.05C117.56 121.55 112.17 116.82 110.89 111.04C113.12 108.94 114.85 106.32 115.81 103.38C117.99 96.72 116.02 89.01 110.93 84.19C110.51 83.79 109.84 83.81 109.44 84.23C109.04 84.65 109.06 85.32 109.48 85.72C113.92 89.92 115.7 96.91 113.8 102.72C111.9 108.53 106.34 113.12 100.28 113.89C94.22 114.66 87.69 111.59 84.4 106.44C84.09 105.95 83.43 105.8 82.94 106.12C82.45 106.43 82.3 107.09 82.62 107.58C85.99 112.87 92.11 116.13 98.34 116.13C99.07 116.13 99.81 116.08 100.54 115.99C103.65 115.6 106.59 114.36 109.09 112.53C110.94 118.79 116.73 123.61 123.27 124.16C123.65 124.19 124.03 124.21 124.41 124.21C129.57 124.21 135.01 121.33 138.25 117.12V189.46C133.37 184.7 125.57 182.93 119.21 185.48C111.91 188.41 107.14 196.79 108.37 204.56C108.45 205.08 108.9 205.45 109.41 205.45C109.46 205.45 109.52 205.45 109.58 205.44C110.16 205.35 110.55 204.81 110.46 204.23C109.38 197.39 113.57 190.02 120 187.44C126.3 184.91 134.23 187.22 138.25 192.68V209.5C138.25 209.51 138.26 209.52 138.26 209.54C138.26 209.55 138.25 209.56 138.26 209.58C138.52 213.46 135.42 220.59 131.43 223.4Z" fill="#7C8C9C"/>
        <path d="M115.84 159.38C121.18 159.38 126.49 156.33 129.08 151.64C131.88 146.58 131.37 139.85 127.85 135.26C127.49 134.8 126.83 134.71 126.37 135.06C125.91 135.42 125.82 136.08 126.17 136.54C129.19 140.48 129.62 146.27 127.22 150.61C124.82 154.96 119.69 157.67 114.74 157.21C109.8 156.75 105.26 153.13 103.7 148.42C103.52 147.87 102.92 147.56 102.37 147.75C101.82 147.93 101.51 148.53 101.7 149.08C103.51 154.57 108.79 158.78 114.55 159.32C114.99 159.36 115.42 159.38 115.84 159.38Z" fill="#7C8C9C"/>
        <path d="M232.94 127.87C232.87 127.82 232.79 127.81 232.71 127.78C233.81 124.59 234.11 120.97 233.54 117.36C232.98 113.83 231.65 110.69 229.74 108.16C234.76 105.55 238.51 100.4 239.86 94.19C242.15 83.65 238.53 72.76 230.18 65.07C222.06 57.59 211.05 54.47 200.86 56.57C202.75 49.75 200.72 41.75 195.53 35.93C190.82 30.65 183.72 27.11 175.54 25.98C170.59 25.29 163.35 25.25 156.97 28.93C151.11 32.31 147.44 38.29 147.46 44.32C147.46 44.34 147.45 44.36 147.45 44.38V113.24V192.13C147.39 192.32 147.39 192.52 147.45 192.71V209.53C147.45 209.53 147.45 209.53 147.45 209.54C147.15 214.56 150.89 222.12 155.17 225.14C160.07 228.59 166.56 230.37 173.66 230.37C177.61 230.37 181.75 229.82 185.91 228.69C194.63 226.33 203.23 219.11 209.49 208.87C213.22 202.77 214.81 196.07 213.98 190.01C213.92 189.6 213.85 189.19 213.77 188.78C215.16 189.15 216.57 189.32 217.96 189.32C225.05 189.32 231.73 185.13 233.97 183.58C242.92 177.34 248.14 166.81 247.92 155.41C247.67 144.03 242.08 133.73 232.94 127.87ZM232.73 181.84C230.14 183.65 221.06 189.32 213.16 186.38C213.14 186.37 213.13 186.38 213.11 186.37C211.39 181.04 207.64 176.59 202.92 174.47C205.43 171.84 207.21 168.49 207.82 164.93C208.84 158.98 206.62 152.5 202.16 148.42C201.73 148.03 201.06 148.06 200.67 148.49C200.28 148.92 200.31 149.59 200.74 149.98C204.68 153.58 206.64 159.31 205.74 164.57C204.84 169.83 201.09 174.58 196.18 176.67C191.27 178.76 185.24 178.17 180.83 175.17C180.35 174.84 179.69 174.97 179.36 175.45C179.03 175.93 179.16 176.59 179.64 176.92C182.65 178.96 186.31 180.02 189.97 180.02C192.39 180.02 194.8 179.56 197.01 178.62C198.6 177.94 200.09 177.01 201.42 175.89C201.53 176.07 201.68 176.22 201.88 176.31C207.08 178.54 211 184.03 211.86 190.29C212.63 195.87 211.14 202.07 207.66 207.76C201.68 217.54 193.54 224.42 185.34 226.64C174.31 229.62 163.48 228.41 156.36 223.4C152.37 220.59 149.27 213.46 149.53 209.6C149.53 209.59 149.52 209.58 149.53 209.56C149.53 209.55 149.54 209.54 149.54 209.52V192.7C153.56 187.24 161.49 184.94 167.79 187.46C174.22 190.04 178.41 197.41 177.33 204.25C177.24 204.83 177.63 205.37 178.21 205.46C178.27 205.47 178.32 205.47 178.38 205.47C178.89 205.47 179.34 205.1 179.42 204.58C180.65 196.81 175.88 188.43 168.58 185.5C162.23 182.95 154.42 184.72 149.54 189.48V117.14C152.78 121.35 158.21 124.23 163.38 124.23C163.76 124.23 164.14 124.21 164.52 124.18C171.06 123.63 176.85 118.81 178.7 112.55C181.2 114.39 184.14 115.62 187.25 116.01C187.98 116.1 188.72 116.15 189.45 116.15C195.68 116.15 201.8 112.89 205.17 107.6C205.48 107.11 205.34 106.46 204.85 106.14C204.36 105.83 203.7 105.97 203.39 106.46C200.11 111.61 193.58 114.68 187.51 113.91C181.45 113.14 175.89 108.55 173.99 102.74C172.09 96.93 173.87 89.94 178.31 85.74C178.73 85.34 178.75 84.67 178.35 84.25C177.95 83.83 177.28 83.81 176.86 84.21C171.77 89.02 169.8 96.73 171.98 103.4C172.94 106.34 174.67 108.97 176.9 111.06C175.63 116.84 170.23 121.57 164.33 122.07C158.44 122.57 151.85 118.52 149.53 113.01V76.74C151.57 77.19 153.62 77.43 155.62 77.43C158.93 77.43 162.11 76.82 164.95 75.6C170.36 73.28 174.45 68.77 175.88 63.54C177.44 57.82 175.6 51.58 171.3 48.03C170.85 47.66 170.18 47.72 169.81 48.17C169.44 48.62 169.5 49.29 169.95 49.66C173.57 52.65 175.17 58.13 173.84 62.98C172.58 67.6 168.95 71.59 164.12 73.65C159.84 75.48 154.67 75.8 149.53 74.57V44.96C149.53 44.93 149.54 44.9 149.54 44.87C149.29 39.49 152.68 33.82 157.99 30.76C163.86 27.38 170.6 27.43 175.22 28.07C182.9 29.14 189.54 32.43 193.93 37.34C198.85 42.85 200.68 50.49 198.58 56.79C198.54 56.9 198.54 57.02 198.54 57.14C198.48 57.16 198.43 57.17 198.37 57.18C194.41 53.76 188.3 53.28 183.88 56.13C183.39 56.45 183.25 57.1 183.56 57.59C183.88 58.08 184.53 58.22 185.02 57.91C188.74 55.51 194.15 56.04 197.34 59.1C200.53 62.16 201.27 67.55 199.03 71.36C198.73 71.86 198.9 72.51 199.4 72.81C199.57 72.91 199.75 72.96 199.93 72.96C200.29 72.96 200.64 72.77 200.84 72.44C203.29 68.27 202.87 62.77 199.99 58.95C209.87 56.44 220.76 59.32 228.72 66.65C236.51 73.83 239.9 83.96 237.77 93.77C236.51 99.56 232.98 104.29 228.3 106.53C227.82 106.04 227.32 105.58 226.79 105.16C222.76 102.01 217.22 101.22 212.99 103.21C212.46 103.46 212.24 104.09 212.48 104.62C212.73 105.15 213.36 105.38 213.88 105.13C217.4 103.47 222.06 104.16 225.48 106.83C228.55 109.23 230.72 113.2 231.44 117.73C232.07 121.72 231.55 125.71 229.96 128.96C228.25 132.46 225.19 135.21 221.77 136.3C218.15 137.46 214.03 136.74 211.29 134.47C210.84 134.1 210.17 134.16 209.8 134.61C209.43 135.06 209.49 135.73 209.94 136.1C212.19 137.96 215.2 138.96 218.25 138.96C219.65 138.96 221.06 138.75 222.42 138.32C226.43 137.03 229.88 133.96 231.86 129.89C231.88 129.85 231.89 129.81 231.91 129.77C240.39 135.27 245.57 144.87 245.77 155.48C245.98 166.14 241.1 176.01 232.73 181.84Z" fill="#7C8C9C"/>
        <path d="M185.4 147.75C184.85 147.57 184.25 147.87 184.07 148.42C182.52 153.14 177.98 156.75 173.03 157.21C168.09 157.67 162.95 154.96 160.55 150.61C158.15 146.26 158.58 140.48 161.6 136.54C161.95 136.08 161.87 135.41 161.41 135.06C160.95 134.71 160.28 134.79 159.93 135.26C156.41 139.85 155.91 146.58 158.7 151.64C161.29 156.32 166.6 159.38 171.94 159.38C172.37 159.38 172.8 159.36 173.22 159.32C178.98 158.78 184.26 154.57 186.07 149.08C186.26 148.53 185.96 147.93 185.4 147.75Z" fill="#7C8C9C"/>
        <path d="M251.51 79.21H236.31V64.01C236.31 62.67 235.22 61.58 233.88 61.58H225.07C223.73 61.58 222.64 62.67 222.64 64.01V79.21H207.44C206.1 79.21 205.01 80.3 205.01 81.64V90.45C205.01 91.79 206.1 92.88 207.44 92.88H222.64V108.08C222.64 109.42 223.73 110.51 225.07 110.51H233.88C235.22 110.51 236.31 109.42 236.31 108.08V92.88H251.51C252.85 92.88 253.94 91.79 253.94 90.45V81.64C253.94 80.3 252.85 79.21 251.51 79.21Z" fill="#FF939B"/>
        <path d="M68.6 186.11H58.03V175.54C58.03 174.61 57.27 173.85 56.34 173.85H50.22C49.29 173.85 48.53 174.61 48.53 175.54V186.11H37.96C37.03 186.11 36.27 186.87 36.27 187.8V193.92C36.27 194.85 37.03 195.61 37.96 195.61H48.53V206.18C48.53 207.11 49.29 207.87 50.22 207.87H56.34C57.27 207.87 58.03 207.11 58.03 206.18V195.61H68.6C69.53 195.61 70.29 194.85 70.29 193.92V187.8C70.29 186.87 69.53 186.11 68.6 186.11Z" fill="#FF939B"/>
    </g>
    <defs>
        <clipPath id="clip0_11_623">
            <rect width="258.69" height="235.57" fill="white"/>
        </clipPath>
    </defs>
</svg>
