<svg width="156" height="30" viewBox="0 0 156 30" fill="none" xmlns="http://www.w3.org/2000/svg">
    <path d="M20.8366 21.3111L23.7308 12.7453L16.4454 21.3111H13.3089L11.7691 12.3473L8.73954 21.3111H0.898193L7.89837 0.67363H17.0585L18.6553 9.59152L26.3041 0.67363H35.6781L28.6779 21.3111H20.8366Z" fill="#1D9DD1"/>
    <path d="M34.787 1.3396L28.2431 20.6374H21.7348L25.3988 9.78288L16.1746 20.6374H13.8364L11.9687 9.78288L8.30469 20.6374H1.78925L8.33321 1.3396H16.5452L18.2775 11.023L26.5822 1.3396H34.787V1.3396ZM36.5763 0H34.787H26.5822H26.0333L25.6626 0.436325L19.0402 8.16006L17.7785 1.09464L17.586 0H16.5452H8.33321H7.4564L7.15701 0.887964L0.613051 20.1858L0 21.9923H1.78925H8.29757H9.17437L9.47377 21.1044L11.5624 14.9116L12.5889 20.89L12.7814 21.9923H13.8221H16.1603H16.7163L17.087 21.556L22.0627 15.7077L20.5514 20.1935L19.9455 22H21.7348H28.2431H29.1199L29.4193 21.112L35.9632 1.8142L36.5763 0Z" fill="white"/>
    <path d="M30.1392 21.3111C29.904 21.3111 29.6972 21.1733 29.5832 20.9513C29.4763 20.7293 29.4905 20.4614 29.6188 20.2547C30.2105 19.3285 30.7736 18.4482 31.3154 17.6138C31.8714 16.7564 32.4916 15.945 33.1403 15.2178C33.2615 15.0877 33.4183 15.0111 33.5894 15.0111H44.496C44.6457 14.9269 44.774 14.858 44.8738 14.7968L45.2801 14.5442C45.3657 14.4906 45.4084 14.4523 45.4369 14.4294C45.4583 14.3988 45.4726 14.3758 45.494 14.3528L45.5082 14.3222H37.061C36.7972 14.3222 36.5691 14.1461 36.4764 13.8859C36.3838 13.6256 36.455 13.3271 36.6475 13.1434L41.8727 8.22895C41.9868 8.12178 42.1365 8.06055 42.2862 8.06055H47.4401C47.49 7.984 47.547 7.90745 47.604 7.81559C47.6896 7.67015 47.8892 7.34099 47.9105 7.31037C47.8678 7.24913 47.8036 7.16493 47.7109 7.05011C47.6824 7.01949 47.661 6.98887 47.6397 6.96591H35.1577C34.9296 6.96591 34.7228 6.83577 34.6088 6.62144C34.4947 6.4071 34.5018 6.14684 34.623 5.94016C35.122 5.08281 35.6567 4.22548 36.1984 3.38344C36.7544 2.5261 37.4031 1.67641 38.1302 0.880308C38.2514 0.750176 38.4083 0.67363 38.5793 0.67363H51.6316C52.3658 0.67363 53.0074 0.91093 53.5563 1.38553C54.0482 1.8142 54.4545 2.35004 54.7753 2.96242C55.0818 3.5595 55.317 4.20251 55.4667 4.88379C55.6164 5.54976 55.6877 6.16214 55.6877 6.69798C55.6877 7.30272 55.6022 7.84621 55.4382 8.38205C55.2743 8.90258 55.0533 9.4078 54.7824 9.87474C54.5044 10.3493 54.1836 10.7704 53.8272 11.1225C53.6775 11.2756 53.5207 11.4134 53.3638 11.5282C53.371 11.5358 53.3781 11.5512 53.3923 11.5588C53.7203 11.9416 53.8985 12.4621 53.927 13.1051C53.927 13.5491 53.8557 13.993 53.7131 14.5136C53.5848 14.9805 53.4565 15.3786 53.3425 15.7077L53.2141 16.0981C52.8506 17.0091 52.5013 17.7669 52.1662 18.3946C51.7884 19.0912 51.2966 19.6576 50.7049 20.0863C50.1204 20.5073 49.3647 20.8288 48.4666 21.0278C47.604 21.2192 46.4706 21.3187 45.1019 21.3187H30.1392V21.3111Z" fill="#D64746"/>
    <path d="M51.6388 1.3396C52.2233 1.3396 52.7366 1.53097 53.1643 1.90606C53.592 2.28115 53.9484 2.74043 54.2335 3.29158C54.5187 3.83508 54.7254 4.41684 54.8608 5.03688C54.9963 5.65693 55.0676 6.20808 55.0676 6.69033V6.76688C55.0676 7.22617 54.9963 7.69312 54.8466 8.16772C54.6969 8.64232 54.5044 9.09395 54.2549 9.51496C54.0054 9.94363 53.7203 10.3111 53.4066 10.6249C53.093 10.9388 52.7722 11.1684 52.4585 11.3139C52.5512 11.5052 52.708 11.7349 52.9362 12.0028C53.1643 12.2707 53.2855 12.6458 53.3068 13.128C53.3068 13.4649 53.2427 13.8629 53.1215 14.3145C53.0003 14.7662 52.8791 15.1489 52.7651 15.4628L52.6296 15.8608C52.2875 16.7105 51.9596 17.4377 51.6316 18.0425C51.3037 18.6472 50.8832 19.1447 50.3628 19.5198C49.8424 19.8949 49.1723 20.1782 48.3454 20.3542C47.5185 20.5379 46.4421 20.6298 45.1091 20.6298H30.1392C30.7238 19.7112 31.2941 18.8309 31.8358 17.9889C32.3776 17.1545 32.9692 16.3814 33.5966 15.6771H44.6528C44.881 15.5546 45.0592 15.4551 45.1946 15.3709C45.3301 15.2867 45.4655 15.2025 45.6009 15.1183C45.7364 15.0341 45.8362 14.9576 45.9075 14.881C45.9788 14.7815 46.0215 14.7203 46.0429 14.6973L46.1142 14.5136C46.157 14.437 46.1855 14.3222 46.1997 14.1461C46.214 13.9777 46.214 13.8093 46.214 13.6333H37.0539L42.2791 8.71886H47.7038C47.7252 8.71886 47.7751 8.66528 47.8535 8.55811C47.932 8.45094 48.0175 8.32081 48.1102 8.17537C48.2028 8.02992 48.2884 7.89214 48.3668 7.75435C48.4452 7.62422 48.4951 7.51705 48.5165 7.44816L48.5878 7.26444C48.5664 7.24148 48.545 7.18024 48.5165 7.08072C48.4452 6.95825 48.3311 6.7975 48.1601 6.59081C47.989 6.38413 47.8821 6.28463 47.8393 6.28463H35.1577C35.6567 5.43494 36.1771 4.5929 36.7188 3.75087C37.2606 2.91649 37.8808 2.10508 38.5865 1.33195H51.6388V1.3396ZM51.6388 0H38.5865C38.2443 0 37.9236 0.145447 37.6883 0.405711C36.9469 1.23243 36.2697 2.10508 35.6923 2.99304C35.1363 3.85039 34.6017 4.71538 34.1027 5.57273C33.8603 5.98609 33.8461 6.50662 34.067 6.93529C34.288 7.36396 34.7086 7.63187 35.1648 7.63187H41.5591C41.5234 7.65484 41.4949 7.68546 41.4593 7.71608L36.2341 12.6305C35.842 12.9979 35.7066 13.5873 35.8848 14.1155C35.9133 14.1921 35.949 14.2686 35.9846 14.3375H33.5966C33.2544 14.3375 32.9336 14.483 32.6984 14.7509C32.0212 15.501 31.3867 16.3354 30.8093 17.231C30.2675 18.0731 29.6973 18.9534 29.1056 19.8796C28.8418 20.293 28.8133 20.8288 29.0343 21.2651C29.2482 21.7091 29.6759 21.9847 30.1392 21.9847H45.0948C46.5276 21.9847 47.6682 21.8852 48.5878 21.6862C49.5715 21.4718 50.3984 21.1197 51.0542 20.6451C51.7314 20.1552 52.2875 19.5122 52.708 18.7314C53.0573 18.0807 53.4209 17.2999 53.7773 16.4043C53.7844 16.3814 53.7987 16.3584 53.8058 16.3354L53.9413 15.9374C54.0553 15.6159 54.1908 15.1949 54.3191 14.7126C54.483 14.1308 54.5543 13.618 54.5543 13.1434C54.5543 13.1204 54.5543 13.0974 54.5543 13.0745C54.5258 12.5386 54.4189 12.064 54.2122 11.6583C54.2264 11.643 54.2407 11.6277 54.2549 11.62C54.647 11.2296 55.0034 10.7627 55.3099 10.2422C55.6093 9.7293 55.8517 9.17815 56.0299 8.60404C56.2224 7.99165 56.3151 7.37927 56.3151 6.77454V6.69798C56.3151 6.10856 56.2366 5.45024 56.0798 4.73069C55.9159 3.99583 55.6664 3.29158 55.3313 2.64092C54.9749 1.94433 54.5116 1.35491 53.9627 0.865C53.2997 0.290888 52.5156 0 51.6388 0Z" fill="white"/>
    <path d="M71.9407 21.3111L74.8278 12.7453L67.5424 21.3111H64.4059L62.8662 12.3473L59.8437 21.3111H51.9952L58.9954 0.67363H68.1626L69.7523 9.59152L77.4083 0.67363H86.7822L79.7821 21.3111H71.9407Z" fill="#1D9DD1"/>
    <path d="M85.8841 1.3396L79.3401 20.6374H72.8318L76.4958 9.78288L67.2716 20.6374H64.9334L63.0658 9.78288L59.4017 20.6374H52.8934L59.4374 1.3396H67.6423L69.3745 11.023L77.6792 1.3396H85.8841V1.3396ZM87.6733 0H85.8841H77.6792H77.1303L76.7596 0.436325L70.1372 8.16006L68.8755 1.09464L68.683 0H67.6494H59.4374H58.5606L58.2612 0.887964L51.7172 20.1858L51.1041 21.9923H52.8934H59.4017H60.2785L60.5779 21.1044L62.6666 14.9116L63.6931 20.89L63.8855 21.9923H64.9263H67.2644H67.8205L68.1911 21.556L73.1668 15.7077L71.6556 20.1935L71.0497 22H72.8389H79.3472H80.224L80.5234 21.112L87.0674 1.8142L87.6733 0Z" fill="white"/>
    <path d="M92.8058 21.3111C91.5298 21.3111 90.3251 21.1962 89.2273 20.9743C88.0868 20.737 87.0959 20.3389 86.2619 19.7724C85.3993 19.1907 84.715 18.3869 84.2302 17.3841C83.7455 16.389 83.496 15.1489 83.496 13.6869C83.496 13.3807 83.5103 13.0592 83.5316 12.7223C83.553 12.3932 83.5887 12.0487 83.6386 11.6966C83.831 10.2575 84.273 8.85665 84.9645 7.53236C85.6488 6.21573 86.5114 5.03689 87.5307 4.0341C88.543 3.03132 89.6764 2.21225 90.8954 1.60752C92.1357 0.987479 93.4189 0.67363 94.702 0.67363H99.1787C102.023 0.67363 104.233 1.21712 105.744 2.29645C107.334 3.42937 108.146 5.30481 108.146 7.86152C108.146 8.62701 108.075 9.45373 107.932 10.3111C107.719 11.8038 107.248 13.2429 106.535 14.5748C105.83 15.8914 104.931 17.0626 103.876 18.0578C102.821 19.0529 101.624 19.849 100.312 20.4308C98.9862 21.0202 97.6033 21.3187 96.1918 21.3187H92.8058V21.3111ZM91.2233 11.7578C91.2233 12.1176 91.2874 12.5004 91.4229 12.8984C91.5583 13.3041 91.7437 13.6792 91.9789 14.016C92.1999 14.3375 92.4636 14.5978 92.7559 14.7968C93.0197 14.9729 93.2906 15.0571 93.5757 15.0571H95.814C95.8639 15.0571 96.0493 15.0418 96.5198 14.8121C96.8976 14.6284 97.3039 14.3681 97.7245 14.0543C98.1451 13.7328 98.5514 13.373 98.9363 12.975C99.2927 12.5999 99.5636 12.2324 99.7347 11.888C99.9842 11.467 100.041 11.2909 100.055 11.2373L100.084 11.1531L100.198 10.8469C100.212 10.7704 100.227 10.6938 100.248 10.6096C100.269 10.4335 100.284 10.2498 100.291 10.0661C100.298 9.87474 100.305 9.67572 100.305 9.46904C100.305 9.12457 100.276 8.77245 100.212 8.42798C100.162 8.13709 100.063 7.88448 99.9129 7.65484C99.7704 7.4405 99.5779 7.2721 99.3213 7.14197C99.0575 7.00418 98.6868 6.93529 98.2235 6.93529H95.479C95.2081 6.93529 94.9016 7.01949 94.5737 7.18024C94.203 7.36396 93.8252 7.60891 93.4545 7.92276C93.0838 8.23661 92.7274 8.59639 92.4066 8.98678C92.093 9.36953 91.8435 9.74461 91.6581 10.112C91.5726 10.3417 91.4728 10.6096 91.3872 10.8546C91.316 11.0612 91.2661 11.2297 91.2518 11.3674L91.2233 11.6047L91.2162 11.6124V11.7578H91.2233Z" fill="#1D9DD1"/>
    <path d="M99.1787 1.3396C101.916 1.3396 103.99 1.84482 105.402 2.8476C106.813 3.85804 107.519 5.52679 107.519 7.85386C107.519 8.58107 107.448 9.36187 107.312 10.1809C107.106 11.6124 106.671 12.9596 105.994 14.2227C105.316 15.4857 104.475 16.588 103.47 17.5372C102.465 18.4864 101.332 19.2366 100.077 19.7954C98.8223 20.3542 97.5249 20.6298 96.1919 20.6298H92.7987C91.5584 20.6298 90.4036 20.5226 89.3414 20.3006C88.2793 20.0786 87.3597 19.7112 86.597 19.1907C85.8271 18.6701 85.2211 17.9582 84.7792 17.0626C84.3372 16.167 84.1162 15.0341 84.1162 13.6792C84.1162 13.3883 84.1305 13.0821 84.1519 12.7683C84.1733 12.4544 84.2089 12.1253 84.2517 11.7884C84.4299 10.4259 84.8505 9.11691 85.5063 7.85386C86.1621 6.59082 86.9748 5.48087 87.9514 4.52401C88.9208 3.56716 89.9901 2.79402 91.1521 2.21225C92.314 1.63049 93.4973 1.3396 94.6949 1.3396H99.1787V1.3396ZM93.5829 15.723H95.8212C96.0493 15.723 96.3701 15.6235 96.7907 15.4168C97.2113 15.2102 97.6461 14.9346 98.0952 14.5978C98.5443 14.261 98.9791 13.8782 99.3855 13.4495C99.7918 13.0285 100.098 12.6075 100.298 12.1942C100.505 11.8573 100.626 11.5894 100.669 11.3904L100.804 11.023C100.847 10.801 100.868 10.6938 100.868 10.6938C100.89 10.5024 100.911 10.2958 100.918 10.0967C100.932 9.89005 100.932 9.67571 100.932 9.46138C100.932 9.07098 100.897 8.68824 100.833 8.29785C100.761 7.90745 100.626 7.56298 100.426 7.25679C100.219 6.95059 99.9486 6.7133 99.5922 6.52958C99.2429 6.34586 98.7867 6.25401 98.2164 6.25401H95.4719C95.1084 6.25401 94.7234 6.36117 94.3028 6.56019C93.8823 6.76687 93.4688 7.04245 93.0625 7.37927C92.6562 7.71608 92.2784 8.09882 91.9291 8.52749C91.5798 8.95616 91.3018 9.36952 91.095 9.78289C90.981 10.0738 90.8812 10.3493 90.7885 10.602C90.6958 10.8546 90.6388 11.0842 90.6174 11.2756C90.596 11.2985 90.5818 11.3827 90.5818 11.5282V11.7502C90.5818 12.1865 90.6602 12.6458 90.817 13.1127C90.9738 13.5873 91.1877 14.016 91.4586 14.4064C91.7295 14.7968 92.0431 15.1107 92.4067 15.3556C92.7916 15.6006 93.1766 15.723 93.5829 15.723ZM99.1787 0H94.702C93.3262 0 91.9576 0.336817 90.6317 1.00279C89.3557 1.63814 88.1723 2.49548 87.1102 3.54419C86.0481 4.59291 85.1427 5.83299 84.4228 7.21086C83.6957 8.6117 83.2252 10.0891 83.0256 11.6124C82.9757 11.9798 82.94 12.3396 82.9115 12.6841C82.8901 13.0285 82.8759 13.3653 82.8759 13.6945C82.8759 15.2714 83.1468 16.6187 83.6814 17.7056C84.2232 18.8079 84.9788 19.6959 85.934 20.3466C86.8322 20.9589 87.9015 21.3876 89.1133 21.6402C90.2467 21.8699 91.4942 21.9923 92.8059 21.9923H96.199C97.696 21.9923 99.1574 21.6785 100.562 21.0508C101.937 20.4384 103.192 19.604 104.297 18.563C105.402 17.5219 106.343 16.2895 107.084 14.9116C107.84 13.5108 108.332 11.9951 108.56 10.4029C108.702 9.53793 108.781 8.67293 108.781 7.86918C108.781 5.07516 107.883 3.00836 106.101 1.74531C104.454 0.566463 102.194 0 99.1787 0ZM92.2427 10.3723C92.3995 10.0738 92.6134 9.75226 92.8772 9.43076C93.1765 9.07098 93.4973 8.74182 93.8466 8.45094C94.1745 8.17537 94.5096 7.95338 94.8375 7.79262C95.087 7.67015 95.308 7.60891 95.4862 7.60891H98.2306C98.7154 7.60891 98.9578 7.69311 99.0576 7.7467C99.2215 7.8309 99.3356 7.93041 99.4211 8.05289C99.5138 8.19068 99.5779 8.35909 99.6136 8.55046C99.6635 8.85665 99.692 9.16284 99.692 9.46903C99.692 9.66041 99.6849 9.85178 99.6777 10.0278C99.6706 10.1962 99.6563 10.357 99.635 10.5177C99.6278 10.556 99.6136 10.5943 99.6064 10.6326L99.5067 10.8928L99.4781 10.977L99.4567 11.0612C99.4567 11.0612 99.414 11.1837 99.2429 11.4593L99.2144 11.5052L99.1859 11.5588C99.0433 11.8497 98.8152 12.1559 98.5015 12.4774C98.1451 12.8525 97.7602 13.1893 97.3681 13.4878C96.976 13.7787 96.6054 14.016 96.2561 14.1844C95.9139 14.3528 95.7856 14.3758 95.7784 14.3758H93.5757C93.4047 14.3758 93.2478 14.3222 93.0839 14.215C92.8486 14.0619 92.649 13.8553 92.4708 13.6026C92.2784 13.3194 92.1215 13.0056 92.0003 12.6611C91.8934 12.3319 91.8364 12.0258 91.8364 11.7502V11.6583L91.8578 11.444C91.8649 11.4057 91.8792 11.2909 91.9576 11.0842C92.0502 10.8622 92.1429 10.6249 92.2427 10.3723Z" fill="white"/>
    <path d="M121.548 21.3111L114.869 14.6973L112.637 21.3111H104.796L111.796 0.66597H127.358C128.256 0.66597 129.004 0.887962 129.596 1.33194C130.159 1.76061 130.608 2.3041 130.929 2.95476C131.228 3.5748 131.442 4.25608 131.549 4.97564C131.656 5.66457 131.713 6.31524 131.713 6.90466C131.713 8.29018 131.385 9.45372 130.737 10.3723C130.116 11.2526 129.332 11.9568 128.406 12.4774C127.507 12.9826 126.502 13.3424 125.419 13.5644C124.848 13.6792 124.292 13.771 123.758 13.8476L130.537 21.3111H121.548V21.3111ZM116.722 9.23938L117.87 7.99164H123.558C123.658 7.99164 123.679 7.97633 123.722 7.87682C123.858 7.57063 123.879 7.39457 123.879 7.31037C123.879 7.31037 123.879 6.897 123.879 6.88935H117.52L116.722 9.23938Z" fill="#1D9DD1"/>
    <path d="M127.358 1.3396C128.128 1.3396 128.755 1.52332 129.24 1.88309C129.724 2.25053 130.102 2.70982 130.373 3.26862C130.644 3.82742 130.829 4.43215 130.929 5.09047C131.029 5.74878 131.079 6.35352 131.079 6.91232C131.079 8.15241 130.794 9.1705 130.23 9.97426C129.667 10.778 128.962 11.4134 128.113 11.888C127.265 12.3626 126.324 12.6994 125.298 12.9061C124.271 13.1127 123.302 13.2505 122.396 13.3271L129.04 20.6451H121.783L114.797 13.7251L114.427 14.016L112.188 20.6451H105.68L112.224 1.34725H127.358V1.3396ZM115.147 11.9033L118.133 8.66527H123.558C123.9 8.66527 124.143 8.50452 124.285 8.17537C124.435 7.84621 124.506 7.56298 124.506 7.31803V6.91997C124.506 6.7286 124.471 6.5602 124.406 6.43006C124.335 6.29993 124.171 6.23104 123.9 6.23104H117.086L115.147 11.9033ZM127.358 0H112.231H111.354L111.055 0.887964L104.511 20.1858L103.898 21.9923H105.687H112.195H113.072L113.372 21.1044L115.132 15.8838L120.942 21.6326L121.298 21.9923H121.79H129.047H132.02L129.945 19.7112L125.055 14.3299C125.212 14.2992 125.369 14.2686 125.533 14.238C126.673 14.0084 127.743 13.6256 128.698 13.0898C129.71 12.5233 130.558 11.7578 131.236 10.801C131.97 9.76757 132.34 8.4586 132.34 6.92763C132.34 6.29993 132.283 5.611 132.169 4.88379C132.048 4.08769 131.813 3.34517 131.485 2.66389C131.122 1.91371 130.608 1.28601 129.952 0.796104C129.254 0.260265 128.384 0 127.358 0Z" fill="white"/>
    <path d="M131.478 21.3111L134.821 11.4746L130.73 0.67363H139.341L140.866 4.76131L145.193 0.67363H154.339L142.541 11.8573L139.326 21.3111H131.478Z" fill="#1D9DD1"/>
    <path d="M152.685 1.3396L142.007 11.4669L138.884 20.6451H132.376L135.498 11.4669L131.663 1.34725H138.92L140.617 5.90188L145.436 1.34725H152.685V1.3396ZM156 0H152.685H145.428H144.958L144.602 0.336815L141.116 3.6284L140.082 0.842037L139.768 0H138.92H131.663H129.803L130.501 1.85247L134.151 11.4976L131.2 20.1858L130.587 21.9923H132.376H138.884H139.761L140.061 21.112L143.069 12.2554L153.512 2.35769L156 0Z" fill="white"/>
</svg>
